<?xml version="1.0" standalone="no"?>
<!DOCTYPE svg PUBLIC "-//W3C//DTD SVG 20010904//EN"
 "http://www.w3.org/TR/2001/REC-SVG-20010904/DTD/svg10.dtd">
<svg version="1.0" xmlns="http://www.w3.org/2000/svg"
 width="423.000000pt" height="305.000000pt" viewBox="0 0 423.000000 305.000000"
 preserveAspectRatio="xMidYMid meet">

<g transform="translate(0.000000,305.000000) scale(0.100000,-0.100000)"
fill="#000000" stroke="none">
<path d="M1697 2646 c-68 -19 -126 -64 -168 -132 -81 -132 -333 -571 -347
-604 -19 -47 -19 -146 1 -193 16 -37 120 -220 294 -515 140 -237 133 -234 640
-230 l368 3 56 26 c35 17 69 43 91 70 53 67 374 628 388 679 26 97 15 125
-178 461 -97 170 -180 309 -184 309 -3 0 -8 -181 -10 -402 -5 -435 -6 -445
-64 -559 -49 -98 -175 -211 -278 -250 l-56 -22 0 -48 c0 -58 5 -59 89 -25 190
77 352 268 392 461 7 33 15 156 18 274 l6 215 85 -145 c80 -137 84 -147 84
-204 1 -59 -1 -63 -128 -280 -72 -121 -150 -256 -174 -300 -54 -97 -75 -122
-127 -146 -36 -17 -71 -19 -390 -19 -226 0 -364 4 -390 11 -22 6 -54 26 -71
44 -28 30 -44 56 -117 185 -25 45 -149 259 -192 330 -67 113 -79 152 -65 213
12 54 345 626 383 659 51 43 105 49 412 46 l280 -3 0 -400 c0 -397 0 -400 -23
-446 -13 -26 -34 -57 -48 -69 -20 -19 -24 -33 -24 -77 0 -29 4 -53 9 -53 20 0
78 49 113 95 68 90 69 91 70 588 0 245 -3 450 -6 456 -11 17 -676 14 -739 -3z"/>
<path d="M2500 2216 c0 -451 -3 -493 -48 -581 -29 -58 -124 -155 -170 -174
-30 -13 -32 -17 -32 -62 0 -61 13 -63 96 -13 79 47 139 107 179 179 68 123 69
125 73 596 l3 427 -28 20 c-15 10 -38 23 -50 26 l-23 7 0 -425z"/>
<path d="M1931 2440 c-218 -62 -386 -223 -455 -436 -72 -221 -8 -473 164 -645
63 -63 94 -85 171 -122 115 -55 164 -67 269 -67 l81 0 -3 46 -3 46 -80 4
c-293 14 -524 251 -525 539 0 163 49 285 160 395 121 121 243 166 428 157
l113 -5 -3 46 c-3 43 -5 47 -33 53 -64 14 -219 8 -284 -11z"/>
<path d="M1949 2291 c-209 -67 -349 -256 -349 -472 0 -245 158 -438 405 -495
43 -9 86 -13 112 -9 l43 6 0 51 c0 50 0 50 -29 45 -47 -10 -150 10 -208 40
-82 41 -135 93 -179 175 -38 72 -39 75 -39 178 0 102 1 109 38 182 44 89 92
136 187 182 59 28 74 31 160 31 52 0 110 -4 128 -8 l32 -9 0 50 0 50 -44 11
c-67 17 -192 13 -257 -8z"/>
<path d="M1965 2136 c-82 -35 -164 -119 -194 -201 -46 -123 -14 -270 80 -364
63 -63 136 -95 232 -99 l77 -4 0 49 0 49 -62 0 c-223 1 -334 267 -177 423 71
72 182 93 275 52 25 -12 48 -21 50 -21 2 0 4 24 4 53 0 49 -3 55 -27 67 -16 7
-66 14 -113 17 -74 3 -93 1 -145 -21z"/>
<path d="M729 698 c0 -12 0 -172 1 -225 0 -22 4 -23 68 -23 76 0 124 19 155
62 39 53 16 152 -43 183 -37 19 -180 21 -181 3z m159 -64 c54 -38 10 -124 -64
-124 l-34 0 0 70 0 70 38 0 c21 0 48 -7 60 -16z"/>
<path d="M1081 688 c-5 -13 -28 -65 -50 -117 -23 -52 -41 -101 -41 -108 0 -21
48 -15 62 7 19 29 127 29 146 0 14 -22 62 -28 62 -7 0 7 -22 65 -49 128 -49
113 -50 114 -85 117 -30 3 -38 -1 -45 -20z m74 -138 c-8 -12 -65 -13 -65 -1 0
5 7 26 16 47 l16 39 19 -38 c11 -21 17 -42 14 -47z"/>
<path d="M1440 622 c0 -66 -4 -93 -15 -102 -19 -15 -52 -4 -60 21 -4 13 -15
19 -36 19 -68 0 -6 -97 68 -107 37 -5 46 -2 72 24 33 33 44 84 39 173 -3 54
-4 55 -35 58 l-33 3 0 -89z"/>
<path d="M1544 695 c-11 -28 2 -149 20 -183 35 -68 133 -79 191 -22 29 29 30
35 33 125 l4 95 -31 0 -31 0 0 -75 c0 -67 -3 -79 -25 -100 -29 -30 -45 -31
-74 -7 -17 14 -21 30 -23 97 -3 79 -3 80 -31 83 -18 2 -29 -2 -33 -13z"/>
<path d="M1928 698 c-2 -7 -3 -65 -3 -128 l0 -115 70 -3 c111 -4 178 43 178
126 0 91 -52 132 -169 132 -49 0 -73 -4 -76 -12z m160 -64 c26 -18 30 -74 6
-98 -18 -18 -54 -29 -81 -24 -15 3 -19 15 -21 71 l-3 67 38 0 c21 0 49 -7 61
-16z"/>
<path d="M2220 579 l0 -130 28 3 27 3 3 128 3 127 -31 0 -30 0 0 -131z"/>
<path d="M2389 687 c-70 -47 -84 -125 -33 -187 46 -54 122 -62 192 -20 29 18
32 24 32 70 l0 50 -65 0 c-62 0 -65 -1 -65 -24 0 -21 5 -25 38 -28 46 -4 45
-20 -2 -32 -47 -12 -89 16 -94 62 -6 57 62 92 119 62 13 -8 25 -7 39 0 28 15
25 27 -12 50 -45 27 -106 26 -149 -3z"/>
<path d="M2630 580 l0 -130 30 0 30 0 0 130 0 130 -30 0 -30 0 0 -130z"/>
<path d="M2734 695 c-12 -30 4 -45 45 -45 l40 0 3 -97 3 -98 30 0 30 0 3 98 3
97 44 0 c43 0 45 1 45 30 l0 30 -120 0 c-98 0 -122 -3 -126 -15z"/>
<path d="M3012 591 c-29 -66 -52 -125 -52 -131 0 -5 13 -10 29 -10 21 0 32 6
36 20 5 17 15 20 70 20 54 0 66 -3 75 -20 7 -13 21 -20 41 -20 36 0 37 -6 -29
145 -47 107 -49 110 -83 113 l-35 3 -52 -120z m104 4 c7 -19 14 -39 14 -45 0
-11 -56 -14 -63 -2 -5 7 22 82 30 82 2 0 11 -16 19 -35z"/>
<path d="M3285 698 c-3 -8 -4 -66 -3 -129 l3 -114 98 -3 97 -3 0 31 0 30 -65
0 -64 0 -3 98 -3 97 -28 3 c-16 2 -29 -2 -32 -10z"/>
</g>
</svg>
